HIERARCHY
ROOT Torso
{
	OFFSET 0.000000 0.000000 0.000000
	CHANNELS 6 Xposition Yposition Zposition Zrotation Yrotation Xrotation
	JOINT LHip
	{
		OFFSET 0.010000 0.000000 -0.060000
		CHANNELS 6 Xposition Yposition Zposition Zrotation Yrotation Xrotation
		JOINT LeftThigh
		{
			OFFSET 0.000000 -0.055000 -0.055000
			CHANNELS 6 Xposition Yposition Zposition Zrotation Yrotation Xrotation
			JOINT LeftLeg
			{
				OFFSET -0.015000 0.000000 -0.120000
				CHANNELS 6 Xposition Yposition Zposition Zrotation Yrotation Xrotation
				JOINT LeftFoot
				{
					OFFSET 0.010000 0.000000 -0.100000
					CHANNELS 6 Xposition Yposition Zposition Zrotation Yrotation Xrotation
					End Site
					{
						OFFSET -0.090000 0.000000 -0.035000
					}
				}
			}
		}
	}
	JOINT RHip
	{
		OFFSET 0.010000 0.000000 -0.060000
		CHANNELS 6 Xposition Yposition Zposition Zrotation Yrotation Xrotation
		JOINT RightThigh
		{
			OFFSET 0.000000 0.055000 -0.055000
			CHANNELS 6 Xposition Yposition Zposition Zrotation Yrotation Xrotation
			JOINT RightLeg
			{
				OFFSET -0.015000 0.000000 -0.120000
				CHANNELS 6 Xposition Yposition Zposition Zrotation Yrotation Xrotation
				JOINT RightFoot
				{
					OFFSET 0.010000 0.000000 -0.100000
					CHANNELS 6 Xposition Yposition Zposition Zrotation Yrotation Xrotation
					End Site
					{
						OFFSET -0.090000 0.000000 -0.035000
					}
				}
			}
		}
	}
	JOINT Neck
	{
		OFFSET 0.000000 -0.000000 0.040000
		CHANNELS 6 Xposition Yposition Zposition Zrotation Yrotation Xrotation
		JOINT Head
		{
			OFFSET 0.000000 -0.000000 0.100000
			CHANNELS 6 Xposition Yposition Zposition Zrotation Yrotation Xrotation
			End Site
			{
				OFFSET 0.000000 -0.000000 0.070000
			}
		}
	}
	JOINT LeftUpperarm
	{
		OFFSET 0.000000 -0.098000 0.075000
		CHANNELS 6 Xposition Yposition Zposition Zrotation Yrotation Xrotation
		JOINT LeftLowerarm
		{
			OFFSET -0.090000 0.000000 0.009000
			CHANNELS 6 Xposition Yposition Zposition Zrotation Yrotation Xrotation
			End Site
			{
				OFFSET -0.105000 0.000000 0.000000
			}
		}
	}
	JOINT RightUpperarm
	{
		OFFSET 0.000000 0.098000 0.075000
		CHANNELS 6 Xposition Yposition Zposition Zrotation Yrotation Xrotation
		JOINT RightLowerarm
		{
			OFFSET -0.090000 0.000000 0.009000
			CHANNELS 6 Xposition Yposition Zposition Zrotation Yrotation Xrotation
			End Site
			{
				OFFSET -0.105000 0.000000 0.000000
			}
		}
	}
}
MOTION
Frames: 10
Frame Time: 0.041667
0.000000 0.000000 0.000000 0.000000 -0.000000 0.000000 0.010002 -0.000001 -0.060002 22.127036 53.353903 21.678278 0.000000 -0.055000 -0.055000 -109.898871 -10.936647 45.333369 -0.015000 0.000000 -0.120000 -0.310671 13.184460 29.196480 0.010000 -0.000000 -0.099999 109.153226 -23.711750 98.050296 0.009999 0.000001 -0.060001 146.399900 -54.220862 -69.341501 -0.000000 0.055000 -0.055001 -0.583613 -97.121308 133.666693 -0.015001 0.000000 -0.120001 6.880422 11.460313 37.475643 0.010000 0.000000 -0.100001 119.851105 -0.120516 61.906990 -0.000000 0.000000 0.040000 -99.942292 3.368762 -0.337171 0.000000 -0.000000 0.100000 -3.433937 -4.574965 13.918873 0.000001 -0.098000 0.075002 -68.206392 -103.745854 -19.514311 -0.090000 0.000000 0.009000 24.644419 -2.968467 1.823128 0.000000 0.098000 0.075000 50.420675 -99.961103 -102.936572 -0.090004 -0.000000 0.009000 77.233348 28.060637 38.689945 
0.000000 0.000000 0.000000 0.000000 -0.000000 0.000000 0.010003 -0.000002 -0.060001 22.191566 53.382204 21.699436 0.000000 -0.055000 -0.055000 -109.717399 -11.339111 44.753595 -0.015000 -0.000000 -0.120001 -0.214036 13.120704 30.242957 0.010001 -0.000000 -0.099999 108.692318 -23.451996 97.905762 0.009996 0.000001 -0.060001 146.406580 -54.300745 -69.281949 0.000001 0.055000 -0.055002 0.304533 -97.018391 133.388813 -0.015000 0.000001 -0.120000 6.820047 11.525645 36.640949 0.010000 -0.000001 -0.100000 119.810957 0.468548 62.193742 -0.000000 -0.000000 0.040000 -99.608050 2.994832 -0.413705 -0.000000 -0.000000 0.099996 -3.159529 -4.232270 13.834380 0.000000 -0.098000 0.075000 -70.348565 -103.928015 -20.305012 -0.089998 0.000000 0.009000 26.134010 -3.745682 1.634548 -0.000001 0.098001 0.075002 45.622252 -99.870377 -98.419754 -0.089998 0.000001 0.008999 74.968354 27.916103 36.758463 
0.000000 0.000000 0.000000 0.000000 -0.000000 0.000000 0.009999 0.000000 -0.059999 22.285365 53.435476 21.771863 -0.000001 -0.055001 -0.055001 -109.550558 -11.747519 44.201467 -0.015000 0.000001 -0.120000 -0.125319 13.056581 31.264419 0.009999 -0.000000 -0.099999 108.263607 -23.265429 97.750717 0.010000 -0.000001 -0.060001 146.339658 -54.403140 -69.172973 -0.000001 0.055001 -0.055000 0.143680 -96.842609 134.058992 -0.015000 0.000000 -0.120000 6.781804 11.577854 36.007931 0.010000 -0.000001 -0.100000 119.771110 0.912170 62.405389 -0.000000 -0.000001 0.040000 -99.262736 2.616836 -0.443765 -0.000000 -0.000000 0.100000 -2.872147 -3.917256 13.720509 0.000000 -0.098000 0.075000 -72.494965 -104.234923 -21.206194 -0.090000 -0.000001 0.009000 27.698647 -4.584226 1.392974 0.000000 0.098000 0.074998 40.803151 -99.855747 -93.888033 -0.090000 0.000000 0.009001 72.660959 27.757865 34.828743 
0.000000 0.000000 0.000000 0.000000 -0.000000 0.000000 0.010002 -0.000001 -0.060001 22.350059 53.478045 21.796013 -0.000001 -0.054999 -0.055000 -109.390766 -12.075952 43.624200 -0.015000 -0.000000 -0.120000 -0.029891 12.996884 32.257228 0.009999 -0.000000 -0.100000 107.982402 -23.194440 97.618355 0.009999 0.000002 -0.060001 146.316271 -54.476981 -69.073648 -0.000001 0.055000 -0.055000 -0.947051 -96.599181 135.526745 -0.015000 0.000000 -0.120002 6.747041 11.618915 35.523937 0.010000 -0.000001 -0.100000 119.666717 1.317835 62.582380 -0.000000 0.000001 0.040000 -98.899404 2.259336 -0.451139 -0.000000 0.000000 0.100004 -2.542436 -3.648260 13.583387 0.000000 -0.098000 0.075000 -74.531277 -104.554084 -22.040566 -0.090000 -0.000001 0.009000 29.261459 -5.499732 1.082392 -0.000000 0.098000 0.075002 36.061336 -99.860583 -89.450527 -0.090002 0.000000 0.008999 70.206019 27.592636 32.818267 
0.000000 0.000000 0.000000 0.000000 -0.000000 0.000000 0.010000 0.000002 -0.059998 22.468126 53.509109 21.913036 -0.000001 -0.054999 -0.055000 -109.268861 -12.457971 43.038750 -0.015000 -0.000000 -0.120000 0.066646 12.937137 33.261146 0.009999 -0.000000 -0.100001 107.725204 -23.223876 97.455748 0.010000 -0.000002 -0.060001 146.313526 -54.591093 -69.027873 0.000001 0.055000 -0.055002 -2.947312 -96.266168 137.841427 -0.015000 -0.000000 -0.119999 6.721782 11.652740 35.134664 0.010000 -0.000000 -0.100001 119.661786 1.615583 62.731893 0.000000 -0.000000 0.040000 -98.536571 1.911967 -0.425982 -0.000000 -0.000001 0.099998 -2.200198 -3.406960 13.403229 -0.000000 -0.098000 0.074998 -76.528137 -104.826028 -22.608392 -0.089998 -0.000000 0.009000 30.767055 -6.431749 0.718870 0.000000 0.097999 0.075000 31.540608 -99.951049 -85.267467 -0.090000 -0.000000 0.009001 67.691806 27.379993 30.793655 
0.000000 0.000000 0.000000 0.000000 -0.000000 0.000000 0.010002 0.000000 -0.059999 22.542812 53.517179 21.975714 0.000000 -0.055000 -0.055000 -109.092594 -12.851254 42.390128 -0.015000 0.000000 -0.120000 0.167543 12.878870 34.286791 0.010000 -0.000000 -0.100000 107.479406 -23.313403 97.272979 0.009998 -0.000001 -0.060001 146.309578 -54.656973 -68.974945 0.000001 0.055000 -0.055002 -6.495119 -95.916941 141.568812 -0.014999 -0.000000 -0.120001 6.699706 11.680544 34.808130 0.010000 -0.000001 -0.100001 119.806272 1.790325 62.860874 -0.000000 0.000001 0.040000 -98.177870 1.517631 -0.359752 -0.000000 -0.000000 0.099998 -1.867578 -3.149706 13.205770 -0.000000 -0.097999 0.074998 -78.513803 -105.119330 -23.047688 -0.090002 0.000000 0.009000 32.257833 -7.379951 0.303793 0.000000 0.098000 0.075002 27.525335 -100.098362 -81.583249 -0.090000 -0.000001 0.009001 65.100152 27.099223 28.746395 
0.000000 0.000000 0.000000 0.000000 -0.000000 0.000000 0.010001 -0.000001 -0.060001 22.676134 53.554888 22.107618 -0.000001 -0.054999 -0.055000 -108.910713 -13.297788 41.728211 -0.015000 -0.000000 -0.120000 0.272508 12.817395 35.383730 0.009999 0.000000 -0.100000 107.233273 -23.516423 97.041846 0.009999 0.000000 -0.060001 146.300548 -54.775289 -68.911787 0.000000 0.055001 -0.055000 -11.269079 -95.567952 146.518937 -0.015001 0.000000 -0.120001 6.682672 11.705306 34.498391 0.010001 -0.000001 -0.100000 120.063661 1.822261 62.945282 -0.000000 -0.000001 0.039998 -97.802565 1.080182 -0.250467 -0.000000 0.000002 0.100002 -1.559513 -2.883040 12.964804 -0.000000 -0.098000 0.074998 -80.463931 -105.403049 -23.258666 -0.090000 -0.000001 0.008999 33.716013 -8.326121 -0.153095 -0.000001 0.098000 0.074998 23.983034 -100.291827 -78.378893 -0.089998 0.000000 0.009000 62.428387 26.742451 26.673740 
0.000000 0.000000 0.000000 0.000000 -0.000000 0.000000 0.009999 0.000000 -0.060000 22.769272 53.580396 22.180633 0.000000 -0.054999 -0.054999 -108.685925 -13.740449 41.001953 -0.015000 0.000001 -0.120000 0.383071 12.756994 36.530577 0.009999 -0.000000 -0.099999 107.006183 -23.839034 96.767641 0.010000 0.000001 -0.060001 146.296150 -54.850719 -68.835958 0.000001 0.054999 -0.054999 -16.666479 -95.312162 152.004316 -0.014999 0.000001 -0.120001 6.664560 11.725962 34.196445 0.010000 -0.000000 -0.100001 120.405197 1.735561 62.990306 -0.000001 -0.000001 0.040000 -97.414610 0.673749 -0.126485 -0.000001 -0.000000 0.099996 -1.311036 -2.665073 12.698671 0.000000 -0.097998 0.075000 -82.397339 -105.655725 -23.278574 -0.090000 0.000000 0.009000 35.147481 -9.261883 -0.655310 -0.000000 0.098001 0.075000 20.903587 -100.549196 -75.674692 -0.090000 0.000001 0.009000 59.744710 26.293496 24.619429 
0.000000 0.000000 0.000000 0.000000 -0.000000 0.000000 0.010001 -0.000000 -0.060001 22.875014 53.616650 22.265710 0.000001 -0.054999 -0.055000 -108.454238 -14.183672 40.255407 -0.015000 0.000000 -0.120000 0.497824 12.695368 37.728906 0.009999 -0.000000 -0.099999 106.836719 -24.284413 96.464797 0.010000 -0.000000 -0.060000 146.297283 -54.937199 -68.757643 -0.000000 0.055001 -0.055001 -22.109667 -95.131305 157.514790 -0.015000 0.000000 -0.120000 6.647138 11.742711 33.886652 0.010001 -0.000001 -0.100001 120.791376 1.504397 62.969023 -0.000000 0.000001 0.040002 -97.088885 0.410125 -0.030819 0.000000 -0.000000 0.099998 -1.087209 -2.599587 12.484027 0.000000 -0.098001 0.075002 -84.287335 -105.877706 -23.177600 -0.090000 0.000000 0.009001 36.592841 -10.207382 -1.205533 -0.000001 0.098000 0.075000 18.071595 -100.840749 -73.309500 -0.090000 0.000001 0.009000 57.029266 25.736909 22.575860 
0.000000 0.000000 0.000000 0.000000 -0.000000 0.000000 0.010000 0.000001 -0.059999 23.004012 53.648995 22.383133 0.000000 -0.055000 -0.055000 -108.236109 -14.634478 39.491064 -0.015000 0.000001 -0.120001 0.615049 12.633793 38.958600 0.010000 -0.000001 -0.099999 106.725852 -24.863178 96.126279 0.010000 0.000001 -0.060001 146.327978 -55.038603 -68.713759 0.000001 0.054999 -0.055001 -26.395628 -95.006340 161.908405 -0.015000 0.000001 -0.120002 6.631267 11.756333 33.566507 0.009999 -0.000001 -0.100000 121.129334 1.177162 62.880006 -0.000000 0.000000 0.040000 -96.764082 0.224699 0.067769 -0.000000 0.000000 0.100000 -0.898209 -2.602080 12.282424 -0.000000 -0.097999 0.074996 -86.111473 -106.047027 -22.922258 -0.090000 0.000001 0.009001 38.008114 -11.133849 -1.790525 -0.000001 0.098001 0.075002 15.456358 -101.127993 -71.296499 -0.090000 0.000000 0.009000 54.287320 25.054254 20.543293 
